<svg width="623" height="169" viewBox="0 0 623 169" fill="none" xmlns="http://www.w3.org/2000/svg">
<path d="M24.5498 147.094C24.5498 147.289 24.5254 147.509 24.4766 147.753C24.3301 148.192 24.2568 148.607 24.2568 148.998C24.208 149.584 24.1836 150.17 24.1836 150.756C24.1836 151.439 24.1592 152.147 24.1104 152.88C24.0615 153.612 23.8174 154.32 23.3779 155.004C23.8174 157.055 24.3057 159.35 24.8428 161.889C24.7939 162.035 24.7207 162.206 24.623 162.401C24.3301 163.036 24.1592 163.744 24.1104 164.525C24.0615 165.307 24.3789 166.088 25.0625 166.869C24.6719 167.504 24.2812 168.114 23.8906 168.7C22.5723 168.798 21.5957 168.822 20.9609 168.773C20.375 168.773 19.9844 168.627 19.7891 168.334C19.6426 168.041 19.5205 167.528 19.4229 166.796C16.4932 166.063 14.0518 164.574 12.0986 162.328C12.5869 160.18 13.3682 158.227 14.4424 156.469C14.7842 155.834 15.126 155.199 15.4678 154.564C15.8584 153.637 16.0781 152.636 16.127 151.562C16.127 151.317 16.1514 151.098 16.2002 150.902C16.249 150.463 16.2979 150.023 16.3467 149.584C16.6396 147.289 16.8594 144.97 17.0059 142.626C17.0547 141.063 17.0059 139.477 16.8594 137.865C16.8105 137.23 16.7617 136.596 16.7129 135.961C16.6641 135.521 16.6152 135.082 16.5664 134.643C16.5664 134.447 16.542 134.228 16.4932 133.983C16.5908 133.935 16.6885 133.886 16.7861 133.837C17.0303 133.739 17.2256 133.593 17.3721 133.397C17.4209 133.3 17.4941 133.202 17.5918 133.104C17.7383 132.909 17.8848 132.689 18.0312 132.445C18.1777 132.201 18.251 131.957 18.251 131.713C18.1045 130.297 17.9092 128.856 17.665 127.392C17.4697 125.976 17.2988 124.535 17.1523 123.07C17.0059 121.703 16.9326 120.312 16.9326 118.896C16.8838 118.114 16.8594 117.333 16.8594 116.552C16.8105 116.259 16.7373 115.966 16.6396 115.673C16.6396 115.526 16.6152 115.38 16.5664 115.233C16.5176 115.087 16.4688 114.94 16.4199 114.794C16.3223 114.452 16.249 114.135 16.2002 113.842C16.1025 111.938 16.0293 110.033 15.9805 108.129C15.9316 107.055 15.8828 105.98 15.834 104.906C15.7363 103.197 15.6387 101.513 15.541 99.8525C15.3457 95.5557 15.126 91.2588 14.8818 86.9619C14.6865 83.8369 14.4668 80.7119 14.2227 77.5869C14.0762 76.1709 13.9541 74.7305 13.8564 73.2656C13.8076 72.875 13.7832 72.4844 13.7832 72.0938C13.7832 72.0449 13.7832 71.9961 13.7832 71.9473C13.7344 70.8242 13.6855 69.7012 13.6367 68.5781C13.5391 65.8926 13.417 63.207 13.2705 60.5215C13.1729 59.3008 13.0264 58.1045 12.8311 56.9326C12.7334 56.3955 12.6357 55.834 12.5381 55.248C12.5381 55.248 12.5381 55.2236 12.5381 55.1748C12.5381 55.126 12.5137 55.0771 12.4648 55.0283C12.4648 54.9307 12.4893 54.8574 12.5381 54.8086C12.8799 53.9785 13.002 53.1729 12.9043 52.3916C12.8066 51.6104 12.6357 50.8291 12.3916 50.0479C12.1963 49.5107 12.0498 48.998 11.9521 48.5098C11.415 45.9219 10.7314 43.3584 9.90137 40.8193C9.41309 39.0615 9.07129 37.2793 8.87598 35.4727C8.72949 34.1055 8.50977 32.7627 8.2168 31.4443C7.63086 28.5146 7.38672 25.585 7.48438 22.6553C7.48438 21.3369 7.45996 20.0186 7.41113 18.7002C7.41113 18.4561 7.31348 18.2119 7.11816 17.9678C6.97168 17.7236 6.80078 17.5527 6.60547 17.4551C5.14062 16.6738 4.09082 15.5264 3.45605 14.0127C3.3584 13.8174 3.23633 13.6221 3.08984 13.4268C2.99219 13.2314 2.8457 13.085 2.65039 12.9873C1.57617 12.4502 1.38086 11.7178 2.06445 10.79C1.86914 10.5459 1.67383 10.3018 1.47852 10.0576C1.2832 9.76465 1.03906 9.42285 0.746094 9.03223C0.990234 8.93457 1.20996 8.83691 1.40527 8.73926C1.89355 8.49512 2.38184 8.32422 2.87012 8.22656C4.18848 7.98242 4.89648 7.20117 4.99414 5.88281C4.99414 5.00391 4.99414 4.10059 4.99414 3.17285C4.99414 2.78223 4.99414 2.34277 4.99414 1.85449C5.28711 1.75684 5.58008 1.63477 5.87305 1.48828C6.70312 1.14648 7.50879 0.87793 8.29004 0.682617C9.12012 0.487305 10.0234 0.560547 11 0.902344C12.0254 3.53906 13.4902 5.93164 15.3945 8.08008C15.9316 8.76367 16.4443 9.44727 16.9326 10.1309C18.1045 11.8398 19.667 12.8408 21.6201 13.1338C22.8896 13.4268 24.1348 13.8662 25.3555 14.4521C26.1855 14.8428 27.04 15.1846 27.9189 15.4775C31.3369 16.6006 34.7793 17.626 38.2461 18.5537C39.418 18.8467 40.6143 19.0908 41.835 19.2861C42.9092 19.4326 43.959 19.6523 44.9844 19.9453C46.3027 20.2383 47.5967 20.6045 48.8662 21.0439C49.6475 21.2881 50.4531 21.5322 51.2832 21.7764C51.6738 21.9229 52.0645 22.0449 52.4551 22.1426C53.7246 22.582 55.0186 22.8994 56.3369 23.0947C59.6084 23.6807 62.5869 24.9502 65.2725 26.9033C67.1279 28.124 69.0566 29.1982 71.0586 30.126C73.8906 31.3955 76.0146 33.3486 77.4307 35.9854C77.9678 37.0596 78.4316 38.1826 78.8223 39.3545C79.0664 39.9893 79.3105 40.624 79.5547 41.2588C80.043 42.4795 80.5312 43.6758 81.0195 44.8477C81.8984 46.8008 82.7285 48.7783 83.5098 50.7803C84.3887 53.0264 85.1455 55.2969 85.7803 57.5918C86.6104 60.4238 87.3672 63.2803 88.0508 66.1611C88.2949 67.3818 88.5391 68.5781 88.7832 69.75C88.8809 70.3848 89.0029 71.0195 89.1494 71.6543C89.1982 71.8008 89.2227 71.9473 89.2227 72.0938C89.2715 72.582 89.3936 73.0215 89.5889 73.4121C90.2236 74.4863 90.248 75.585 89.6621 76.708C89.5645 76.8545 89.5156 77.0498 89.5156 77.2939C89.5156 77.5381 89.54 77.7578 89.5889 77.9531C89.8818 78.8809 90.1992 79.8086 90.541 80.7363C91.0781 82.2012 91.542 83.666 91.9326 85.1309C92.7139 87.7188 93.2998 90.3311 93.6904 92.9678C93.8369 94.6279 93.666 96.2393 93.1777 97.8018C92.7383 99.3643 92.1768 100.902 91.4932 102.416C90.8096 104.027 90.1504 105.663 89.5156 107.323C88.9785 108.739 88.417 110.131 87.8311 111.498C86.9033 113.744 85.8047 115.893 84.5352 117.943C82.875 120.141 80.9219 121.923 78.6758 123.29C78.5781 123.388 78.4805 123.461 78.3828 123.51C77.6016 124.145 76.918 124.901 76.332 125.78C76.0391 126.122 75.7461 126.464 75.4531 126.806C72.6211 129.979 69.4229 132.689 65.8584 134.936C65.7119 135.033 65.5654 135.131 65.4189 135.229C62.6357 137.133 59.7793 138.842 56.8496 140.355C55.4336 140.99 53.9199 141.43 52.3086 141.674C51.7227 141.82 51.1367 141.942 50.5508 142.04C49.7207 142.235 48.8906 142.406 48.0605 142.553C47.084 142.748 46.083 142.968 45.0576 143.212C43.6416 143.603 42.2012 143.993 40.7363 144.384C39.5156 144.726 38.2949 145.067 37.0742 145.409C34.877 145.995 32.6553 146.532 30.4092 147.021C30.1162 147.069 29.7988 147.094 29.457 147.094C29.3105 147.094 29.1885 147.094 29.0908 147.094C28.0654 147.094 27.0156 147.094 25.9414 147.094C25.502 147.094 25.0381 147.094 24.5498 147.094ZM15.9072 21.1904C16.0049 21.5811 16.1025 21.9717 16.2002 22.3623C16.4932 23.1436 16.5908 23.8271 16.4932 24.4131C16.1025 26.3174 16.127 28.1973 16.5664 30.0527C16.7617 31.1758 16.8594 32.2988 16.8594 33.4219C16.9082 33.7637 17.0059 34.1299 17.1523 34.5205C17.25 34.7646 17.3477 35.0088 17.4453 35.2529C17.4941 35.5947 17.4697 35.9365 17.3721 36.2783C17.3721 36.3271 17.3721 36.376 17.3721 36.4248C17.3232 36.6689 17.2744 36.9131 17.2256 37.1572C17.1279 37.5967 17.0791 38.0361 17.0791 38.4756C17.1768 41.2588 17.2744 44.0176 17.3721 46.752C17.4209 47.8262 17.4697 48.9004 17.5186 49.9746C17.5186 50.2676 17.5186 50.5361 17.5186 50.7803C17.5186 51.3662 17.543 51.9277 17.5918 52.4648C17.7383 53.7832 17.8848 55.1016 18.0312 56.4199C18.2754 58.9102 18.4951 61.4248 18.6904 63.9639C18.8857 67.1377 19.0078 70.3115 19.0566 73.4854C19.1055 74.4619 19.1299 75.4141 19.1299 76.3418C19.1787 77.123 19.2031 77.8799 19.2031 78.6123C19.1543 79.3447 19.1543 80.0771 19.2031 80.8096C19.252 82.665 19.3252 84.5205 19.4229 86.376C19.4229 86.5713 19.4229 86.791 19.4229 87.0352C19.4229 87.1328 19.4229 87.2549 19.4229 87.4014C19.4229 87.9385 19.4961 88.4268 19.6426 88.8662C19.8379 89.6475 20.082 90.4043 20.375 91.1367C20.9121 92.4062 21.3027 93.7246 21.5469 95.0918C22.084 98.0215 22.377 100.976 22.4258 103.954C22.4258 104.149 22.4258 104.345 22.4258 104.54C22.4746 110.351 22.7432 116.112 23.2314 121.825C23.3779 123.681 23.4268 125.536 23.3779 127.392C23.3291 128.222 23.3047 129.027 23.3047 129.809C23.3047 129.906 23.3047 129.979 23.3047 130.028C23.3535 130.37 23.3291 130.688 23.2314 130.98C22.1084 133.666 22.084 136.352 23.1582 139.037C23.207 139.232 23.2559 139.428 23.3047 139.623C23.3047 139.77 23.3047 139.892 23.3047 139.989C23.4512 140.722 23.5977 141.503 23.7441 142.333C23.793 142.675 23.8662 143.017 23.9639 143.358C24.208 143.358 24.4521 143.334 24.6963 143.285C25.1846 143.236 25.624 143.163 26.0146 143.065C26.6494 142.87 27.2598 142.675 27.8457 142.479C28.627 142.187 29.4082 141.918 30.1895 141.674C31.5078 141.332 32.8506 140.99 34.2178 140.648C36.3662 140.16 38.5146 139.599 40.6631 138.964C42.7139 138.28 44.7646 137.548 46.8154 136.767C48.085 136.278 49.3789 135.814 50.6973 135.375C55.1406 133.861 59.3398 131.908 63.2949 129.516C66.5664 127.465 69.8135 125.365 73.0361 123.217C73.7686 122.68 74.3789 121.996 74.8672 121.166C74.9648 120.971 75.0625 120.8 75.1602 120.653C76.332 118.7 77.4062 116.698 78.3828 114.647C79.6035 111.913 80.6777 109.13 81.6055 106.298C82.6797 103.026 83.1191 99.6572 82.9238 96.1904C82.875 95.3604 82.875 94.5303 82.9238 93.7002C82.9727 93.0654 82.9971 92.4551 82.9971 91.8691C82.9482 90.1113 82.875 88.3291 82.7773 86.5225C82.7773 86.083 82.7285 85.6436 82.6309 85.2041C82.4844 84.3252 82.4844 83.4707 82.6309 82.6406C83.0215 80.4434 82.875 78.3193 82.1914 76.2686C81.6543 74.1201 81.4834 71.9717 81.6787 69.8232C81.6787 69.5303 81.6787 69.2373 81.6787 68.9443C82.5088 68.6514 83.0215 68.3584 83.2168 68.0654C83.4121 67.7725 83.3389 67.2598 82.9971 66.5273C81.8252 63.3535 80.6289 60.2041 79.4082 57.0791C78.9199 55.8584 78.4316 54.6377 77.9434 53.417C77.1621 51.6592 76.4297 49.877 75.7461 48.0703C74.4766 44.5547 72.4014 41.625 69.5205 39.2812C67.3232 37.5234 65.1504 35.7656 63.002 34.0078C62.123 33.2754 61.2686 32.543 60.4385 31.8105C59.4131 30.9805 58.4121 30.1504 57.4355 29.3203C55.3359 27.7578 53.041 26.6348 50.5508 25.9512C50.0625 25.8047 49.5986 25.6338 49.1592 25.4385C47.0596 24.5107 44.8135 24.0469 42.4209 24.0469C42.1279 24.0957 41.8594 24.0469 41.6152 23.9004C40.3457 23.3145 39.0273 23.0947 37.6602 23.2412C37.3672 23.2412 37.0742 23.2412 36.7812 23.2412C36.5371 23.2412 36.3174 23.2412 36.1221 23.2412C35.4873 23.2412 34.877 23.1924 34.291 23.0947C33.2168 22.8994 32.1182 22.6797 30.9951 22.4355C29.6279 22.1426 28.2607 21.8984 26.8936 21.7031C24.501 21.2637 22.1084 20.9707 19.7158 20.8242C19.4717 20.7754 19.2275 20.751 18.9834 20.751C18.4951 20.6533 17.9824 20.6289 17.4453 20.6777C16.9082 20.6777 16.3955 20.8486 15.9072 21.1904ZM42.3477 75.9756C45.4727 74.4619 48.6953 73.7051 52.0156 73.7051C53.5781 73.8516 54.7988 74.6328 55.6777 76.0488C56.5566 77.416 56.7764 78.8809 56.3369 80.4434C55.751 82.1523 54.8477 83.2998 53.627 83.8857C52.4551 84.4229 51.1123 84.7402 49.5986 84.8379C48.2803 84.9355 46.9375 84.8379 45.5703 84.5449C43.8613 84.252 42.9336 83.2021 42.7871 81.3955C42.6895 80.1748 42.5918 78.9297 42.4941 77.6602C42.4453 77.0742 42.3965 76.5127 42.3477 75.9756ZM105.336 51.8789C105.58 51.8301 105.775 51.7812 105.922 51.7324C106.166 51.5859 106.361 51.5371 106.508 51.5859C107.045 51.7324 107.533 51.7568 107.973 51.6592C108.461 51.5615 108.925 51.3906 109.364 51.1465C109.706 51 110.048 50.8779 110.39 50.7803C111.317 50.4873 111.61 49.9258 111.269 49.0957C112.099 48.5098 112.758 48.2168 113.246 48.2168C113.734 48.2168 114.223 48.5586 114.711 49.2422C115.59 50.2676 116.566 50.9512 117.641 51.293C118.764 51.6348 119.936 51.8545 121.156 51.9521C121.303 52.001 121.474 52.0254 121.669 52.0254C123.231 52.2207 124.794 52.4648 126.356 52.7578C127.187 52.8555 127.992 52.9775 128.773 53.124C129.066 53.1729 129.384 53.1973 129.726 53.1973C129.823 53.1973 129.945 53.2217 130.092 53.2705C130.922 53.3193 131.752 53.3926 132.582 53.4902C134.584 53.7344 136.61 53.9053 138.661 54.0029C139.589 54.0029 140.517 53.832 141.444 53.4902C141.64 53.4414 141.811 53.3926 141.957 53.3438C143.324 52.8555 144.74 52.7334 146.205 52.9775C146.742 53.0752 147.377 52.9531 148.109 52.6113C148.5 52.4648 148.915 52.3184 149.354 52.1719C149.647 52.3672 150.062 52.6113 150.6 52.9043C150.99 53.0996 151.381 53.3193 151.771 53.5635C151.674 54.1006 151.601 54.6133 151.552 55.1016C151.308 56.2734 151.161 57.4209 151.112 58.5439C151.112 59.2764 151.234 60.0088 151.479 60.7412C151.527 60.9854 151.576 61.2295 151.625 61.4736C151.723 61.7666 151.82 62.0596 151.918 62.3525C151.967 62.499 152.016 62.6211 152.064 62.7188C151.43 63.3535 150.795 63.6709 150.16 63.6709C149.525 63.6221 148.891 63.4512 148.256 63.1582C148.207 63.1094 148.134 63.085 148.036 63.085C146.522 62.499 145.009 61.8887 143.495 61.2539C142.47 60.8145 141.444 60.3994 140.419 60.0088C139.882 59.8135 139.369 59.5938 138.881 59.3496C137.172 58.6172 135.438 58.0068 133.681 57.5186C131.386 57.0303 129.042 56.7373 126.649 56.6396C123.573 56.3955 120.497 56.249 117.421 56.2002C116.933 56.249 116.444 56.3711 115.956 56.5664C115.761 56.6152 115.565 56.6641 115.37 56.7129C115.224 57.7383 115.102 58.7393 115.004 59.7158C114.662 61.8643 114.491 63.9639 114.491 66.0146C114.491 67.9678 114.613 69.9453 114.857 71.9473C115.004 73.2656 115.102 74.584 115.15 75.9023C115.248 77.5137 115.272 79.125 115.224 80.7363C115.224 81.4688 115.224 82.1768 115.224 82.8604C115.224 83.7393 115.224 84.6426 115.224 85.5703C115.224 86.0098 115.224 86.4736 115.224 86.9619C115.468 87.0596 115.736 87.1572 116.029 87.2549C116.566 87.499 117.152 87.6943 117.787 87.8408C119.887 88.1338 121.986 88.4268 124.086 88.7197C124.867 88.8174 125.624 88.9395 126.356 89.0859C126.552 89.0859 126.723 89.0859 126.869 89.0859C127.895 89.1348 128.92 89.1836 129.945 89.2324C132.289 89.2812 134.633 89.3789 136.977 89.5254C138.393 89.623 139.784 89.7939 141.151 90.0381C141.884 90.1357 142.616 90.2334 143.349 90.3311C143.593 90.3311 143.837 90.3311 144.081 90.3311C144.423 90.3311 144.74 90.3555 145.033 90.4043C145.18 90.4043 145.351 90.4287 145.546 90.4775C146.132 90.5264 146.669 90.6729 147.157 90.917C147.694 91.1123 148.134 91.5029 148.476 92.0889C148.72 92.4795 149.037 92.7969 149.428 93.041C149.623 93.1387 149.77 93.2607 149.867 93.4072C149.477 94.4326 149.062 95.5068 148.622 96.6299C148.329 96.9717 147.963 97.1182 147.523 97.0693C147.084 96.9717 146.645 96.7764 146.205 96.4834C145.668 96.1416 145.131 95.7754 144.594 95.3848C143.373 94.5547 142.128 93.7246 140.858 92.8945C140.663 92.7969 140.395 92.7236 140.053 92.6748C139.76 92.5771 139.564 92.5771 139.467 92.6748C139.027 93.0654 138.563 93.2852 138.075 93.334C137.636 93.3828 137.196 93.3584 136.757 93.2607C136.61 93.2607 136.464 93.2363 136.317 93.1875C135.487 93.1387 134.682 93.041 133.9 92.8945C133.021 92.6992 132.143 92.5527 131.264 92.4551C128.09 92.2109 124.892 92.0889 121.669 92.0889C120.204 92.0889 118.69 92.1865 117.128 92.3818C116.396 92.4307 115.663 92.4795 114.931 92.5283C114.833 92.7725 114.76 93.0166 114.711 93.2607C114.174 94.5791 113.979 96.0439 114.125 97.6553C114.223 98.5342 114.149 99.4619 113.905 100.438C113.856 100.829 113.808 101.22 113.759 101.61C113.71 101.708 113.686 101.83 113.686 101.977C113.539 103.051 113.368 104.125 113.173 105.199C113.026 105.785 112.929 106.396 112.88 107.03C112.782 108.446 112.367 109.813 111.635 111.132C110.902 112.548 110.39 114.086 110.097 115.746C110.048 116.137 109.975 116.527 109.877 116.918C109.633 117.895 109.438 118.871 109.291 119.848C109.145 120.775 108.949 121.679 108.705 122.558C108.559 123.388 108.827 123.9 109.511 124.096C110.146 124.34 110.78 124.486 111.415 124.535C111.464 124.535 111.513 124.535 111.562 124.535C113.368 124.486 115.15 124.73 116.908 125.268C117.445 125.414 118.007 125.463 118.593 125.414C118.983 125.365 119.35 125.365 119.691 125.414C120.473 125.512 121.229 125.609 121.962 125.707C122.89 125.854 123.817 125.976 124.745 126.073C126.259 126.22 127.772 126.244 129.286 126.146C130.604 126.049 131.557 126.562 132.143 127.685C132.631 128.466 133.314 128.808 134.193 128.71C134.633 128.71 135.097 128.734 135.585 128.783C136.415 128.832 137.221 128.808 138.002 128.71C139.223 128.466 140.419 128.075 141.591 127.538C142.128 127.343 142.567 126.269 142.909 124.315C143.983 124.218 144.765 124.34 145.253 124.682C145.741 124.975 146.181 125.634 146.571 126.659C147.108 127.831 147.719 128.979 148.402 130.102C148.744 130.59 148.915 131.029 148.915 131.42C148.915 131.859 148.671 132.274 148.183 132.665C147.694 133.007 147.304 133.422 147.011 133.91C146.522 134.594 145.912 135.009 145.18 135.155C144.447 135.351 143.788 135.375 143.202 135.229C139.296 134.496 135.365 134.032 131.41 133.837C130.824 133.788 130.214 133.739 129.579 133.69C127.528 133.544 125.478 133.349 123.427 133.104C121.571 132.86 119.74 132.665 117.934 132.519C116.566 132.421 115.224 132.396 113.905 132.445C113.075 132.445 112.245 132.421 111.415 132.372C110.683 132.372 109.926 132.299 109.145 132.152C108.07 131.908 107.24 132.372 106.654 133.544C106.41 134.032 106.142 134.545 105.849 135.082C105.751 135.277 105.653 135.473 105.556 135.668C105.458 135.668 105.385 135.692 105.336 135.741C104.848 135.79 104.359 135.79 103.871 135.741C103.432 135.741 103.017 135.546 102.626 135.155C102.626 135.106 102.602 135.058 102.553 135.009C102.211 134.667 101.967 134.374 101.82 134.13C101.674 133.935 101.625 133.715 101.674 133.471C101.723 133.227 101.845 132.86 102.04 132.372C102.04 132.323 102.04 132.274 102.04 132.226C102.382 131.298 102.602 130.346 102.699 129.369C102.699 129.271 102.699 129.198 102.699 129.149C102.846 127.978 102.992 126.781 103.139 125.561C103.188 125.023 103.261 124.462 103.358 123.876C103.993 123.534 104.433 123.046 104.677 122.411C104.921 121.776 105.092 121.093 105.189 120.36C105.189 120.263 105.214 120.189 105.263 120.141C105.409 119.066 105.604 118.017 105.849 116.991C106.044 116.015 106.239 115.014 106.435 113.988C106.435 113.939 106.435 113.891 106.435 113.842C106.63 112.914 106.776 111.986 106.874 111.059C107.069 109.252 107.216 107.445 107.313 105.639C107.362 104.271 107.411 102.88 107.46 101.464C107.509 98.9248 107.631 96.3857 107.826 93.8467C108.314 89.208 108.583 84.5693 108.632 79.9307C108.632 79.0518 108.729 78.1729 108.925 77.2939C109.022 76.8057 109.12 76.3418 109.218 75.9023C109.315 75.1699 109.413 74.4375 109.511 73.7051C109.804 71.8984 110.023 70.0674 110.17 68.2119C110.268 66.3564 110.292 64.5254 110.243 62.7188C110.243 61.5469 110.243 60.375 110.243 59.2031C110.243 58.4219 109.975 57.7383 109.438 57.1523C108.461 56.0293 107.509 54.833 106.581 53.5635C106.19 53.0264 105.775 52.4648 105.336 51.8789ZM111.342 128.856C109.926 127.294 108.632 127.05 107.46 128.124C108.925 129.491 110.219 129.735 111.342 128.856ZM156.459 134.276C157.582 133.251 158.51 132.152 159.242 130.98C159.975 129.809 160.316 128.466 160.268 126.952C160.268 125.438 160.487 123.974 160.927 122.558C160.927 122.46 160.927 122.362 160.927 122.265C161.269 120.897 161.513 119.506 161.659 118.09C161.757 117.455 161.854 116.796 161.952 116.112C162.001 115.722 162.074 115.331 162.172 114.94C162.27 114.354 162.367 113.793 162.465 113.256C162.66 111.449 162.855 109.667 163.051 107.909C163.1 107.519 163.148 107.104 163.197 106.664C163.246 106.42 163.246 106.2 163.197 106.005C162.66 103.661 162.733 101.342 163.417 99.0469C163.515 98.6562 163.588 98.2412 163.637 97.8018C163.979 96.2881 164.369 94.7744 164.809 93.2607C165.102 92.2354 165.37 91.21 165.614 90.1846C165.858 89.1104 166.005 88.0361 166.054 86.9619C166.151 85.0576 166.273 83.1777 166.42 81.3223C166.469 80.248 166.518 79.1494 166.566 78.0264C166.615 77.5869 166.664 77.123 166.713 76.6348C166.811 75.7559 166.859 74.877 166.859 73.998C166.811 73.168 166.713 72.3379 166.566 71.5078C166.469 71.1172 166.396 70.751 166.347 70.4092C166.347 70.2139 166.322 70.043 166.273 69.8965C166.127 69.5059 166.103 69.1396 166.2 68.7979C166.981 65.7705 167.372 62.6943 167.372 59.5693C167.421 59.374 167.445 59.1787 167.445 58.9834C167.396 56.835 166.957 54.7842 166.127 52.8311C166.078 52.7334 166.029 52.6113 165.98 52.4648C165.736 51.7812 165.663 51.293 165.761 51C165.907 50.707 166.298 50.4141 166.933 50.1211C167.274 49.9746 167.616 49.8037 167.958 49.6084C168.544 49.2666 169.13 48.9736 169.716 48.7295C170.448 48.4365 171.181 48.168 171.913 47.9238C172.841 47.582 173.744 47.2158 174.623 46.8252C175.795 46.2881 176.991 45.7021 178.212 45.0674C178.749 44.7744 179.335 44.457 179.97 44.1152C180.312 44.3594 180.702 44.5791 181.142 44.7744C181.63 45.0674 182.045 45.3115 182.387 45.5068C182.533 46.2393 182.704 46.9473 182.899 47.6309C183.339 49.2422 183.729 50.7559 184.071 52.1719C184.12 52.5625 184.145 52.9775 184.145 53.417C184.145 53.71 184.169 54.0273 184.218 54.3691C184.218 54.5645 184.242 54.7354 184.291 54.8818C184.438 56.2002 184.633 57.4697 184.877 58.6904C185.707 62.0596 186.562 65.4043 187.44 68.7246C187.831 70.2871 188.197 71.8252 188.539 73.3389C188.637 73.6318 188.71 73.9248 188.759 74.2178C189.003 75.7314 189.589 77.123 190.517 78.3926C190.614 78.4414 190.663 78.5391 190.663 78.6855C190.712 78.7832 190.712 78.8809 190.663 78.9785C190.712 80.541 191.054 82.0059 191.688 83.373C191.835 83.7637 191.981 84.1543 192.128 84.5449C192.323 85.1797 192.494 85.8145 192.641 86.4492C192.787 87.1816 192.982 87.9141 193.227 88.6465C193.52 89.4766 193.764 90.3311 193.959 91.21C194.301 92.7236 194.838 94.1641 195.57 95.5312C196.059 96.3125 196.742 96.5811 197.621 96.3369C198.305 96.2881 199.013 96.3125 199.745 96.4102C200.087 96.4102 200.429 96.4102 200.771 96.4102C201.308 96.459 201.845 96.4834 202.382 96.4834C202.431 96.4346 202.479 96.4102 202.528 96.4102C202.577 96.3613 202.626 96.3369 202.675 96.3369C203.798 95.9951 204.628 95.9707 205.165 96.2637C205.702 96.5566 206.166 97.2891 206.557 98.4609C206.264 99.2422 205.849 99.7061 205.312 99.8525C204.774 99.999 204.213 100.023 203.627 99.9258C202.943 99.8281 202.333 99.877 201.796 100.072C201.698 100.365 201.625 100.683 201.576 101.024C201.479 101.708 201.259 102.27 200.917 102.709C200.526 103.051 199.965 103.271 199.232 103.368C198.891 103.417 198.524 103.49 198.134 103.588C198.183 103.734 198.231 103.905 198.28 104.101C198.28 104.491 198.354 104.906 198.5 105.346C198.988 106.566 199.477 107.787 199.965 109.008C201.381 112.621 202.87 116.21 204.433 119.774C205.702 122.313 207.094 124.804 208.607 127.245C209.047 127.929 209.462 128.612 209.853 129.296C210.39 130.028 210.414 130.736 209.926 131.42C209.291 132.201 208.559 132.323 207.729 131.786C207.631 131.737 207.533 131.664 207.436 131.566C207.143 131.371 206.85 131.225 206.557 131.127C206.264 131.029 205.946 130.956 205.604 130.907C205.312 130.858 205.092 130.883 204.945 130.98C204.555 131.42 204.115 131.664 203.627 131.713C203.188 131.811 202.724 131.786 202.235 131.64C202.089 131.591 201.967 131.566 201.869 131.566C200.746 131.371 199.672 131.029 198.646 130.541C198.158 130.297 197.792 129.931 197.548 129.442C197.353 128.954 197.328 128.417 197.475 127.831C198.158 124.853 198.231 121.898 197.694 118.969C197.401 117.26 196.938 115.575 196.303 113.915C196.01 113.183 195.741 112.426 195.497 111.645C195.351 111.156 195.204 110.668 195.058 110.18C194.521 108.568 194.032 106.957 193.593 105.346C193.446 104.467 193.202 103.905 192.86 103.661C192.567 103.368 191.981 103.246 191.103 103.295C190.028 103.295 188.93 103.295 187.807 103.295C186.098 103.246 184.364 103.246 182.606 103.295C179.042 103.393 175.478 103.539 171.913 103.734C170.937 103.832 169.96 104.027 168.983 104.32C168.739 104.418 168.495 104.491 168.251 104.54C168.104 104.589 167.982 104.662 167.885 104.76C167.787 104.809 167.714 104.857 167.665 104.906C167.616 104.955 167.592 104.979 167.592 104.979C167.592 105.321 167.567 105.663 167.519 106.005C167.47 106.64 167.445 107.226 167.445 107.763C167.445 107.958 167.47 108.129 167.519 108.275C167.567 109.936 167.714 111.596 167.958 113.256C168.3 114.965 168.666 116.674 169.057 118.383C169.301 119.506 169.545 120.629 169.789 121.752C169.838 122.143 169.765 122.558 169.569 122.997C169.13 123.974 168.666 124.975 168.178 126C167.445 127.562 166.737 129.149 166.054 130.761C165.858 131.396 165.81 132.079 165.907 132.812C165.956 133.056 166.054 133.3 166.2 133.544C166.298 133.69 166.371 133.812 166.42 133.91C166.469 134.057 166.469 134.154 166.42 134.203C166.273 134.496 166.054 134.789 165.761 135.082C165.468 135.375 165.175 135.546 164.882 135.595C164.442 135.644 163.979 135.692 163.49 135.741C161.391 136.132 159.315 135.912 157.265 135.082C157.021 134.936 156.825 134.74 156.679 134.496C156.581 134.447 156.508 134.374 156.459 134.276ZM178.432 57.2256C177.895 57.7139 177.406 58.2021 176.967 58.6904C175.844 59.8623 174.794 60.9854 173.817 62.0596C173.573 62.3037 173.354 62.5967 173.158 62.9385C172.963 63.2314 172.865 63.5244 172.865 63.8174C172.963 66.21 172.67 68.5293 171.986 70.7754C171.693 71.8984 171.449 73.0459 171.254 74.2178C171.01 75.6338 170.888 77.0498 170.888 78.4658C170.888 79.2959 170.937 80.126 171.034 80.9561C171.083 81.9814 171.107 83.0312 171.107 84.1055C171.01 85.8145 170.863 87.5234 170.668 89.2324C170.521 90.7461 170.399 92.2598 170.302 93.7734C170.253 94.8965 169.887 95.8486 169.203 96.6299C168.373 97.5576 168.373 98.29 169.203 98.8271C170.375 98.6318 171.547 98.4365 172.719 98.2412C175.307 97.8018 177.87 97.4111 180.409 97.0693C182.411 96.874 184.413 96.7764 186.415 96.7764C187.294 96.7275 188.173 96.6787 189.052 96.6299C190.565 96.6299 191.054 95.9463 190.517 94.5791C190.321 93.9443 190.126 93.3096 189.931 92.6748C189.442 91.4053 189.003 90.1113 188.612 88.793C187.88 86.1074 187.147 83.3975 186.415 80.6631C185.829 78.5635 185.243 76.4395 184.657 74.291C184.315 73.168 183.949 72.0693 183.559 70.9951C183.461 70.6045 183.339 70.2139 183.192 69.8232C182.948 69.0908 182.729 68.3584 182.533 67.626C181.557 64.5498 180.556 61.4736 179.53 58.3975C179.384 58.1045 179.14 57.8359 178.798 57.5918C178.7 57.4453 178.578 57.3232 178.432 57.2256ZM245.521 134.496C245.131 135.473 244.716 136.059 244.276 136.254C243.837 136.498 243.178 136.425 242.299 136.034C241.029 135.497 239.76 134.96 238.49 134.423C237.221 133.837 235.927 133.3 234.608 132.812C234.169 132.616 233.729 132.494 233.29 132.445C232.851 132.396 232.46 132.299 232.118 132.152C231.386 131.908 230.849 131.493 230.507 130.907C230.214 130.321 230.019 129.613 229.921 128.783C230.36 128.588 230.8 128.417 231.239 128.271C232.021 127.978 232.802 127.685 233.583 127.392C234.022 126.708 234.242 126 234.242 125.268C234.242 124.486 234.169 123.729 234.022 122.997C233.925 122.509 233.876 121.996 233.876 121.459C233.827 121.215 233.778 120.971 233.729 120.727C233.681 120.482 233.656 120.238 233.656 119.994C233.461 117.211 233.29 114.428 233.144 111.645C233.144 111.352 233.144 111.083 233.144 110.839C233.144 110.595 233.144 110.351 233.144 110.106C233.095 109.179 233.046 108.275 232.997 107.396C232.802 105.443 232.729 103.49 232.777 101.537C232.777 100.219 232.753 98.876 232.704 97.5088C232.46 95.165 232.558 92.8213 232.997 90.4775C233.144 89.3057 233.144 88.1338 232.997 86.9619C232.948 86.4248 232.899 85.8877 232.851 85.3506C232.753 81.0537 232.558 76.7568 232.265 72.46C232.118 70.6533 231.898 68.8711 231.605 67.1133C230.971 64.0859 230.775 61.0098 231.02 57.8848C231.068 57.1035 230.922 56.3467 230.58 55.6143C230.482 55.4189 230.287 55.248 229.994 55.1016C229.75 54.9551 229.506 54.8818 229.262 54.8818C228.188 54.8818 227.235 54.9307 226.405 55.0283C225.917 55.0771 225.331 55.1016 224.647 55.1016C224.208 55.1504 223.769 55.1992 223.329 55.248C222.646 55.3457 221.938 55.3945 221.205 55.3945C220.863 55.3945 220.57 55.3945 220.326 55.3945C220.131 55.3945 219.984 55.3945 219.887 55.3945C219.74 55.3945 219.594 55.3945 219.447 55.3945C219.35 55.3945 219.203 55.3945 219.008 55.3945C218.812 55.3457 218.471 55.2969 217.982 55.248C215.492 55.0527 213.417 55.8096 211.757 57.5186C211.708 57.5674 211.635 57.6162 211.537 57.665C211.195 57.958 210.927 58.2754 210.731 58.6172C210.048 59.8379 208.9 60.2041 207.289 59.7158C207.24 59.6182 207.167 59.4961 207.069 59.3496C206.776 59.0566 206.532 58.666 206.337 58.1777C205.897 57.0547 205.482 55.9316 205.092 54.8086C204.799 53.9785 204.481 53.1484 204.14 52.3184C203.993 51.8789 203.749 51.4639 203.407 51.0732C202.479 50.1455 202.479 49.1201 203.407 47.9971C203.554 48.0459 203.7 48.0703 203.847 48.0703C204.14 48.168 204.481 48.2656 204.872 48.3633C205.067 48.4121 205.287 48.4609 205.531 48.5098C205.873 48.6562 206.239 48.7539 206.63 48.8027C206.972 48.8516 207.338 48.8027 207.729 48.6562C207.826 48.6074 207.948 48.6074 208.095 48.6562C208.241 48.6562 208.388 48.6807 208.534 48.7295C208.632 48.7783 208.729 48.8027 208.827 48.8027C209.315 48.9492 209.779 49.0713 210.219 49.1689C210.805 49.3154 211.391 49.4619 211.977 49.6084C212.123 49.6572 212.27 49.6816 212.416 49.6816C213.051 49.877 213.71 50.0234 214.394 50.1211C214.54 50.1211 214.662 50.1211 214.76 50.1211C215.932 50.2676 217.104 50.292 218.275 50.1943C218.959 50.1455 219.472 50.0723 219.813 49.9746C220.155 49.877 220.448 49.7793 220.692 49.6816C220.937 49.584 221.229 49.4863 221.571 49.3887C221.913 49.291 222.401 49.1934 223.036 49.0957C223.524 48.998 224.013 48.9248 224.501 48.876C225.136 48.7295 225.771 48.6318 226.405 48.583C226.991 48.4854 227.479 48.4121 227.87 48.3633C228.261 48.2656 228.798 48.1924 229.481 48.1436C229.53 48.0459 229.579 47.9482 229.628 47.8506C229.774 47.7041 229.848 47.582 229.848 47.4844C229.848 46.8496 229.848 46.1904 229.848 45.5068C229.994 43.8955 229.945 42.3086 229.701 40.7461C229.262 38.7441 228.651 36.7666 227.87 34.8135C227.724 34.5205 227.602 34.2275 227.504 33.9346C226.674 32.0791 225.307 30.8096 223.402 30.126C221.938 29.4912 220.937 28.3438 220.399 26.6836C220.595 26.6348 220.766 26.5859 220.912 26.5371C221.303 26.3906 221.645 26.293 221.938 26.2441C222.23 26.1953 222.499 26.1465 222.743 26.0977C223.231 26.0977 223.671 26 224.062 25.8047C225.185 25.3652 226.332 25.1699 227.504 25.2188C227.895 25.2188 228.31 25.1943 228.749 25.1455C230.653 24.9502 232.558 24.584 234.462 24.0469C235.536 23.7539 236.391 23.7295 237.025 23.9736C237.66 24.1689 238.295 24.7061 238.93 25.585C238.783 25.8291 238.637 26.0488 238.49 26.2441C238.148 26.7324 237.855 27.2451 237.611 27.7822C237.562 27.7822 237.538 27.7822 237.538 27.7822C236.952 29.1494 236.513 30.541 236.22 31.957C236.073 33.0312 235.609 33.8613 234.828 34.4473C234.096 34.9355 233.852 35.6436 234.096 36.5713C234.242 37.5479 234.34 38.5488 234.389 39.5742C234.438 40.1113 234.486 40.6484 234.535 41.1855C234.73 43.041 234.95 44.8721 235.194 46.6787C235.243 47.0693 235.39 47.3379 235.634 47.4844C235.927 47.582 236.244 47.6309 236.586 47.6309C237.27 47.582 237.953 47.5332 238.637 47.4844C239.516 47.3867 240.419 47.3135 241.347 47.2646C242.47 47.2158 243.617 47.1914 244.789 47.1914C245.814 47.1426 246.84 47.0938 247.865 47.0449C248.109 47.0449 248.354 46.9961 248.598 46.8984C248.744 46.8496 248.891 46.8008 249.037 46.752C248.891 46.1172 248.744 45.458 248.598 44.7744C250.648 44.5303 252.431 45.2383 253.944 46.8984C254.872 48.0215 255.678 49.1934 256.361 50.4141C257.045 51.5859 257.851 52.709 258.778 53.7832C259.267 54.3691 259.657 55.0283 259.95 55.7607C260.292 56.4932 260.463 57.1279 260.463 57.665C259.877 57.665 259.291 57.665 258.705 57.665C257.289 57.665 255.897 57.5918 254.53 57.4453C253.798 57.2988 253.188 56.957 252.699 56.4199C252.211 55.8828 251.771 55.248 251.381 54.5156C250.99 54.4668 250.6 54.3936 250.209 54.2959C249.281 54.1006 248.354 54.0518 247.426 54.1494C246.205 54.2471 244.984 54.3203 243.764 54.3691C241.078 54.4668 238.441 54.833 235.854 55.4678C235.902 56.2002 235.951 56.9082 236 57.5918C236.049 59.1543 236.146 60.6436 236.293 62.0596C236.439 63.8662 236.61 65.6729 236.806 67.4795C236.903 68.4561 237.001 69.4326 237.099 70.4092C237.343 72.6064 237.562 74.8037 237.758 77.001C237.807 77.4893 237.855 77.9775 237.904 78.4658C237.953 79.2471 238.026 80.0039 238.124 80.7363C238.222 81.8594 238.344 82.9824 238.49 84.1055C238.539 84.6426 238.612 85.1553 238.71 85.6436C238.808 86.4736 238.905 87.2793 239.003 88.0605C239.247 89.916 239.442 91.7715 239.589 93.627C239.735 95.2871 239.857 96.9473 239.955 98.6074C240.004 99.584 240.077 100.561 240.175 101.537C240.224 102.172 240.272 102.807 240.321 103.441C240.37 103.979 240.419 104.54 240.468 105.126C240.517 105.81 240.565 106.493 240.614 107.177C240.663 107.812 240.712 108.446 240.761 109.081C240.761 109.569 240.785 110.058 240.834 110.546C240.932 111.132 241.005 111.742 241.054 112.377C241.103 113.5 241.249 114.623 241.493 115.746C241.884 117.357 242.055 118.993 242.006 120.653C241.957 120.946 241.981 121.264 242.079 121.605C242.128 121.752 242.152 121.923 242.152 122.118C242.201 122.509 242.274 122.899 242.372 123.29C242.567 124.169 242.592 125.023 242.445 125.854C242.201 127.318 242.445 128.661 243.178 129.882C243.715 130.956 244.252 132.03 244.789 133.104C245.033 133.544 245.277 134.008 245.521 134.496ZM279.14 101.098C279.188 101.732 279.237 102.367 279.286 103.002C279.335 104.271 279.384 105.492 279.433 106.664C279.433 107.25 279.433 107.86 279.433 108.495C279.335 109.813 279.408 111.059 279.652 112.23C279.945 113.354 280.043 114.501 279.945 115.673C279.75 117.284 279.994 118.822 280.678 120.287C280.775 120.482 280.824 120.702 280.824 120.946C280.824 121.19 280.824 121.435 280.824 121.679C280.775 121.825 280.751 121.972 280.751 122.118C280.8 124.315 281.142 126.488 281.776 128.637C281.825 128.881 281.898 129.125 281.996 129.369C282.191 130.199 282.436 131.029 282.729 131.859C282.924 132.494 283.095 133.129 283.241 133.764C283.485 134.789 283.119 135.326 282.143 135.375C281.654 135.375 281.239 135.448 280.897 135.595C280.556 135.741 280.238 135.937 279.945 136.181C279.799 136.278 279.652 136.376 279.506 136.474C278.578 136.913 277.577 137.084 276.503 136.986C275.38 136.986 274.281 136.938 273.207 136.84C272.426 136.742 271.669 136.669 270.937 136.62C270.204 136.62 269.618 136.498 269.179 136.254C268.788 136.01 268.275 135.448 267.641 134.569C267.787 134.472 267.958 134.374 268.153 134.276C268.544 134.032 268.935 133.739 269.325 133.397C270.888 131.688 272.426 129.979 273.939 128.271C274.037 128.124 274.086 127.953 274.086 127.758C274.135 127.562 274.135 127.367 274.086 127.172C274.086 127.074 274.086 127.001 274.086 126.952C274.135 126.317 274.135 125.658 274.086 124.975C274.086 123.949 274.11 122.948 274.159 121.972C274.159 121.386 274.159 120.775 274.159 120.141C274.257 117.26 274.428 114.403 274.672 111.571C275.062 107.47 274.696 103.466 273.573 99.5596C273.329 98.876 273.256 98.1924 273.354 97.5088C273.939 94.5303 273.939 91.5762 273.354 88.6465C272.963 86.9863 272.06 86.4736 270.644 87.1084C269.276 87.7432 267.909 87.9873 266.542 87.8408C266.151 87.792 265.761 87.792 265.37 87.8408C264.638 87.792 263.93 87.6455 263.246 87.4014C262.807 87.2549 262.538 87.0107 262.44 86.6689C262.392 86.3271 262.416 85.9609 262.514 85.5703C265.053 84.3008 267.738 83.6416 270.57 83.5928C272.23 83.6904 272.987 82.958 272.841 81.3955C272.792 80.5166 272.719 79.6621 272.621 78.832C272.572 78.5391 272.523 78.2461 272.475 77.9531C272.328 77.0742 272.206 76.1953 272.108 75.3164C271.864 73.2168 271.571 71.0928 271.229 68.9443C270.985 67.6748 270.79 66.4053 270.644 65.1357C270.351 62.0107 269.667 58.9834 268.593 56.0537C268.495 55.8584 268.422 55.6387 268.373 55.3945C268.324 55.1016 268.324 54.8574 268.373 54.6621C268.568 53.5391 268.471 52.5381 268.08 51.6592C267.738 50.7803 267.274 49.9258 266.688 49.0957C266.591 48.9492 266.518 48.8271 266.469 48.7295C266.127 48.1436 265.81 47.5088 265.517 46.8252C265.37 46.3857 265.175 45.9463 264.931 45.5068C264.589 44.7744 264.174 44.0664 263.686 43.3828C263.246 42.8945 262.782 42.3818 262.294 41.8447C261.757 41.2588 261.244 40.6484 260.756 40.0137C260.463 39.623 260.243 39.1836 260.097 38.6953C260.048 38.5 259.975 38.3047 259.877 38.1094C259.975 37.9629 260.097 37.8164 260.243 37.6699C260.487 37.7676 260.707 37.8408 260.902 37.8896C261.439 37.9873 261.903 38.1582 262.294 38.4023C262.636 38.6953 263.002 38.8906 263.393 38.9883C263.783 39.0371 264.174 39.0859 264.564 39.1348C266.713 39.2324 268.861 39.3789 271.01 39.5742C271.889 39.623 272.768 39.6719 273.646 39.7207C273.744 40.3555 273.842 40.9658 273.939 41.5518C274.184 42.7725 274.379 43.9688 274.525 45.1406C274.623 46.3125 274.696 47.4844 274.745 48.6562C274.794 50.1699 274.892 51.6836 275.038 53.1973C275.282 55.0039 275.6 56.7861 275.99 58.5439C276.186 59.4717 276.356 60.375 276.503 61.2539C276.601 61.791 276.649 62.3281 276.649 62.8652C276.649 62.9141 276.649 62.9385 276.649 62.9385C276.698 63.9639 276.723 65.0137 276.723 66.0879C276.771 68.334 276.894 70.6045 277.089 72.8994C277.235 74.3643 277.479 75.8291 277.821 77.2939C277.968 78.1729 278.114 79.0762 278.261 80.0039C278.31 80.4434 278.334 80.9316 278.334 81.4688C278.285 81.7129 278.261 82.0059 278.261 82.3477C278.456 82.3965 278.627 82.4453 278.773 82.4941C279.115 82.6895 279.457 82.7871 279.799 82.7871C280.678 82.7871 281.557 82.7383 282.436 82.6406C283.412 82.5918 284.413 82.5674 285.438 82.5674C287.636 82.5186 289.857 82.5674 292.104 82.7139C293.08 82.7627 294.032 82.8604 294.96 83.0068C295.595 83.1045 296.229 83.2021 296.864 83.2998C297.938 83.3975 299.037 83.4951 300.16 83.5928C301.82 83.7393 303.456 83.9102 305.067 84.1055C305.8 84.2031 306.312 84.1299 306.605 83.8857C306.898 83.5928 307.045 83.0557 307.045 82.2744C306.996 81.1025 306.947 79.9062 306.898 78.6855C306.801 76.3906 306.752 74.1201 306.752 71.874C306.752 68.2607 306.874 64.6719 307.118 61.1074C307.216 59.7402 307.338 58.373 307.484 57.0059C307.631 55.8828 307.753 54.7842 307.851 53.71C307.851 53.2217 307.777 52.709 307.631 52.1719C307.582 51.9766 307.533 51.8057 307.484 51.6592C307.436 51.4639 307.387 51.2686 307.338 51.0732C307.191 50.7314 307.118 50.3896 307.118 50.0479C307.216 48.3389 306.776 46.7764 305.8 45.3604C305.751 45.2627 305.702 45.165 305.653 45.0674C305.653 44.9209 305.653 44.7988 305.653 44.7012C305.702 44.5547 305.702 44.4326 305.653 44.335C306.142 44.1885 306.605 44.0664 307.045 43.9688C308.021 43.6758 308.998 43.4561 309.975 43.3096C311.098 43.1631 311.83 42.626 312.172 41.6982C313.734 41.7959 315.028 42.4551 316.054 43.6758C317.079 44.8965 317.226 46.3613 316.493 48.0703C316.054 49.0957 315.785 50.1211 315.688 51.1465C315.639 51.8301 315.541 52.4893 315.395 53.124C315.346 53.2217 315.346 53.3438 315.395 53.4902C315.395 53.6367 315.37 53.7832 315.321 53.9297C314.442 55.6875 314.003 57.5186 314.003 59.4229C313.954 59.96 313.905 60.4727 313.856 60.9609C313.759 61.9863 313.808 63.0117 314.003 64.0371C314.101 64.623 314.174 65.1846 314.223 65.7217C314.223 66.3564 314.223 66.9912 314.223 67.626C314.223 67.9678 314.223 68.3096 314.223 68.6514C314.271 70.8975 314.32 73.1191 314.369 75.3164C314.418 75.3652 314.442 75.4385 314.442 75.5361C314.442 75.6338 314.442 75.707 314.442 75.7559C314.442 76.293 314.467 76.8057 314.516 77.2939C314.516 79.0029 314.516 80.6875 314.516 82.3477C314.516 82.6406 314.491 82.9092 314.442 83.1533C314.394 83.4951 314.369 83.8125 314.369 84.1055C314.564 85.0332 314.76 85.9609 314.955 86.8887C315.053 87.1328 315.126 87.377 315.175 87.6211C313.856 88.3047 312.978 89.1592 312.538 90.1846C312.147 91.21 311.952 92.333 311.952 93.5537C311.952 94.1396 311.903 94.75 311.806 95.3848C311.708 96.166 311.684 96.9229 311.732 97.6553C311.781 99.0225 311.879 100.414 312.025 101.83C312.172 103.197 312.294 104.564 312.392 105.932C312.392 106.664 312.343 107.396 312.245 108.129C312.147 108.666 312.099 109.203 312.099 109.74C312.05 110.863 312.025 111.986 312.025 113.109C312.025 114.037 312.025 114.965 312.025 115.893C312.025 117.26 312.416 118.554 313.197 119.774C313.881 120.995 314.467 122.289 314.955 123.656C315.199 124.291 315.468 124.901 315.761 125.487C315.907 125.878 316.078 126.269 316.273 126.659C316.371 126.854 316.469 127.05 316.566 127.245C317.25 128.612 317.934 130.004 318.617 131.42C318.91 131.957 319.203 132.519 319.496 133.104C317.006 135.302 313.93 136.425 310.268 136.474C308.705 135.888 307.899 134.521 307.851 132.372C307.851 131.103 307.729 129.809 307.484 128.49C307.387 127.807 307.313 127.123 307.265 126.439C307.216 125.805 307.167 125.17 307.118 124.535C307.118 123.949 307.094 123.363 307.045 122.777C306.947 121.703 306.825 120.556 306.679 119.335C306.63 118.798 306.581 118.236 306.532 117.65C306.874 117.26 307.069 116.82 307.118 116.332C307.216 115.795 307.24 115.233 307.191 114.647C307.143 113.964 307.191 113.28 307.338 112.597C307.387 112.157 307.411 111.693 307.411 111.205C307.411 110.814 307.436 110.399 307.484 109.96C307.777 107.616 307.753 105.297 307.411 103.002C307.265 101.635 307.191 100.292 307.191 98.9736C307.191 98.0947 307.167 97.2158 307.118 96.3369C307.069 95.0674 307.045 93.7734 307.045 92.4551C307.094 91.2344 306.85 90.4287 306.312 90.0381C305.775 89.5986 305.067 89.3057 304.188 89.1592C304.091 89.1592 303.993 89.1348 303.896 89.0859C301.063 88.5 298.183 88.2314 295.253 88.2803C293.983 88.2803 292.714 88.2314 291.444 88.1338C288.075 88.085 284.804 87.499 281.63 86.376C279.53 85.6924 278.432 86.498 278.334 88.793C278.334 89.623 278.334 90.4775 278.334 91.3564C278.285 93.5537 278.285 95.751 278.334 97.9482C278.432 98.7783 278.603 99.5352 278.847 100.219C278.993 100.561 279.091 100.854 279.14 101.098ZM456.239 141.454C456.288 141.503 456.288 141.601 456.239 141.747C456.239 141.942 456.19 142.113 456.093 142.26C456.044 142.455 455.971 142.602 455.873 142.699C455.824 142.797 455.727 142.919 455.58 143.065C455.434 143.212 455.287 143.334 455.141 143.432C455.092 143.432 455.019 143.456 454.921 143.505C454.872 143.554 454.823 143.627 454.774 143.725C454.726 143.725 454.677 143.749 454.628 143.798C454.579 143.847 454.53 143.871 454.481 143.871C454.481 143.92 454.457 143.969 454.408 144.018C454.408 144.066 454.408 144.115 454.408 144.164C454.359 144.213 454.335 144.237 454.335 144.237C454.188 144.921 453.944 145.531 453.603 146.068C453.261 146.605 452.748 146.996 452.064 147.24C451.381 147.484 450.697 147.484 450.014 147.24C449.379 147.045 448.769 146.728 448.183 146.288C448.085 146.239 447.987 146.166 447.89 146.068C447.89 146.068 447.865 146.044 447.816 145.995C447.328 145.604 446.791 145.287 446.205 145.043C442.885 143.334 440.15 140.868 438.002 137.646C437.953 137.597 437.904 137.523 437.855 137.426C437.807 137.328 437.758 137.255 437.709 137.206C436.684 135.595 435.292 134.521 433.534 133.983C433.437 133.349 433.363 132.689 433.314 132.006C433.266 131.664 433.217 131.322 433.168 130.98C433.168 130.785 433.144 130.59 433.095 130.395C432.851 127.904 432.509 125.438 432.069 122.997C431.679 121.19 431.215 119.433 430.678 117.724C430.58 117.479 430.482 117.211 430.385 116.918C429.994 115.551 429.628 114.184 429.286 112.816C428.358 109.545 426.918 106.518 424.965 103.734C424.086 102.074 423.476 100.341 423.134 98.5342C423.134 98.3877 423.109 98.2412 423.061 98.0947C423.012 97.9482 422.987 97.8262 422.987 97.7285C422.938 97.582 422.89 97.4355 422.841 97.2891C422.792 97.0449 422.743 96.8008 422.694 96.5566C422.646 96.3613 422.597 96.166 422.548 95.9707C422.548 95.873 422.548 95.7998 422.548 95.751C421.718 91.6006 420.448 87.5723 418.739 83.666C417.763 81.6152 416.859 79.4912 416.029 77.2939C415.98 77.1963 415.932 77.0986 415.883 77.001C415.346 75.4873 414.711 73.9736 413.979 72.46C411.342 66.6982 408.485 61.0098 405.409 55.3945C403.944 52.8555 402.406 50.3652 400.795 47.9238C400.697 47.8262 400.624 47.7285 400.575 47.6309C400.282 47.1426 399.965 46.6787 399.623 46.2393C398.842 44.9697 398.036 43.7246 397.206 42.5039C396.034 40.502 394.887 38.4512 393.764 36.3516C393.666 36.1562 393.544 35.9365 393.397 35.6924C393.3 35.4482 393.178 35.2041 393.031 34.96C392.689 34.3252 392.348 33.6904 392.006 33.0557C391.957 32.9092 391.884 32.7383 391.786 32.543C391.688 32.3477 391.591 32.1768 391.493 32.0303C390.956 30.9072 390.37 29.833 389.735 28.8076C389.345 28.2705 388.881 27.8799 388.344 27.6357C388.295 27.6357 388.271 27.6113 388.271 27.5625C388.222 27.5625 388.148 27.5381 388.051 27.4893C387.904 27.3916 387.782 27.3184 387.685 27.2695C387.636 27.2207 387.562 27.1719 387.465 27.123C387.416 27.0742 387.367 27.0254 387.318 26.9766C387.074 27.0742 386.854 27.1963 386.659 27.3428C386.366 27.4893 386.073 27.6357 385.78 27.7822C385.731 28.2217 385.683 28.71 385.634 29.2471C385.634 29.7354 385.609 30.1748 385.561 30.5654C385.463 32.3232 385.365 34.0566 385.268 35.7656C385.268 36.1562 385.243 36.5713 385.194 37.0107C385.194 37.3037 385.194 37.5967 385.194 37.8896C385.194 38.0361 385.17 38.1826 385.121 38.3291C385.023 40.5264 384.95 42.7236 384.901 44.9209C384.901 45.751 384.95 46.5566 385.048 47.3379C385.048 47.3867 385.048 47.46 385.048 47.5576C385.048 47.5576 385.048 47.582 385.048 47.6309C385.146 48.4121 385.194 49.1934 385.194 49.9746C385.194 51.1953 385.243 52.3672 385.341 53.4902C385.634 56.8594 385.341 60.1797 384.462 63.4512C384.169 64.4277 384.047 65.4287 384.096 66.4541C384.096 66.5029 384.096 66.5762 384.096 66.6738C384.096 66.7227 384.096 66.7715 384.096 66.8203C384.096 66.9668 384.096 67.1133 384.096 67.2598C384.096 67.3574 384.096 67.4795 384.096 67.626C384.242 69.9209 383.925 72.167 383.144 74.3643C382.948 75.0479 382.997 75.8291 383.29 76.708C383.974 78.6611 384.096 80.6631 383.656 82.7139C383.266 84.4229 383.095 86.1074 383.144 87.7676C383.095 88.0117 383.07 88.2314 383.07 88.4268C383.07 88.5732 383.07 88.6953 383.07 88.793C382.973 93.4805 382.948 98.168 382.997 102.855C383.046 103.393 383.144 103.881 383.29 104.32C383.388 104.711 383.461 105.053 383.51 105.346C383.607 107.689 383.632 109.984 383.583 112.23C383.534 114.525 383.485 116.771 383.437 118.969C383.437 119.359 383.412 119.774 383.363 120.214C383.363 120.507 383.363 120.8 383.363 121.093C383.363 121.874 383.339 122.655 383.29 123.437C383.29 123.534 383.29 123.632 383.29 123.729C383.29 123.827 383.29 123.9 383.29 123.949C384.022 124.389 384.755 124.804 385.487 125.194C385.683 125.292 385.878 125.39 386.073 125.487C387.245 130.175 388.344 134.887 389.369 139.623C389.271 139.672 389.125 139.745 388.93 139.843C388.832 139.892 388.759 139.94 388.71 139.989C388.417 140.136 388.148 140.258 387.904 140.355C387.025 140.795 386.122 141.259 385.194 141.747C385.146 141.747 385.097 141.771 385.048 141.82C384.999 141.82 384.95 141.845 384.901 141.894C384.462 141.991 384.071 142.211 383.729 142.553C382.313 144.115 380.604 145.312 378.603 146.142C378.554 146.142 378.505 146.166 378.456 146.215C377.87 146.508 377.26 146.801 376.625 147.094C375.551 147.777 374.623 148.607 373.842 149.584C373.256 150.219 372.597 150.658 371.864 150.902C371.181 151.195 370.399 151.415 369.521 151.562C369.423 151.562 369.35 151.586 369.301 151.635C368.959 151.684 368.617 151.732 368.275 151.781C368.275 151.781 368.251 151.757 368.202 151.708C368.153 151.708 368.104 151.708 368.056 151.708C368.007 151.659 367.958 151.635 367.909 151.635C368.056 151.439 368.202 151.269 368.349 151.122C368.446 150.976 368.544 150.829 368.642 150.683C368.935 150.341 369.228 149.999 369.521 149.657C370.302 148.681 371.059 147.655 371.791 146.581C372.475 145.604 372.67 144.53 372.377 143.358C372.182 142.821 372.133 142.333 372.23 141.894C372.377 141.454 372.597 140.99 372.89 140.502C372.987 140.355 373.085 140.209 373.183 140.062C373.28 139.916 373.378 139.77 373.476 139.623C375.233 137.23 376.308 134.569 376.698 131.64C376.796 130.321 376.771 129.027 376.625 127.758C376.576 127.27 376.527 126.781 376.479 126.293C376.479 125.951 376.454 125.609 376.405 125.268C376.356 124.975 376.332 124.657 376.332 124.315C376.283 123.876 376.234 123.461 376.186 123.07C376.186 122.973 376.161 122.875 376.112 122.777C376.112 122.631 376.112 122.484 376.112 122.338C376.015 121.752 375.941 121.117 375.893 120.434C375.893 117.455 375.917 114.428 375.966 111.352C375.966 111.205 375.966 111.059 375.966 110.912C375.966 110.717 375.966 110.546 375.966 110.399C375.966 109.228 376.088 108.08 376.332 106.957C376.82 104.418 376.723 101.928 376.039 99.4863C375.99 99.291 375.941 99.1201 375.893 98.9736C375.795 98.3877 375.697 97.8262 375.6 97.2891C375.502 96.8984 375.429 96.5566 375.38 96.2637C375.331 95.9707 375.282 95.6777 375.233 95.3848C374.257 90.6973 374.232 86.0098 375.16 81.3223C375.697 78.6855 375.941 76 375.893 73.2656C375.893 73.2168 375.893 73.168 375.893 73.1191C375.941 72.4844 375.966 71.8496 375.966 71.2148C375.966 70.2871 375.99 69.3594 376.039 68.4316C376.088 66.6738 376.137 64.916 376.186 63.1582C376.332 58.5684 376.405 53.9785 376.405 49.3887C376.405 48.5098 376.405 47.6309 376.405 46.752C376.405 46.7031 376.405 46.6299 376.405 46.5322C376.698 42.6748 376.186 38.8662 374.867 35.1064C374.77 34.7646 374.745 34.252 374.794 33.5684C375.038 30.248 374.647 26.9521 373.622 23.6807C373.573 23.583 373.524 23.4609 373.476 23.3145C373.427 23.0703 373.378 22.8506 373.329 22.6553C372.792 20.9463 372.572 19.2373 372.67 17.5283C372.914 15.3311 372.646 13.2314 371.864 11.2295C371.864 11.1807 371.84 11.1318 371.791 11.083C371.498 10.2529 371.254 9.39844 371.059 8.51953C371.352 8.27539 371.62 8.12891 371.864 8.08008C372.108 7.98242 372.426 8.03125 372.816 8.22656C373.598 8.56836 374.452 8.76367 375.38 8.8125C378.31 9.00781 381.166 9.71582 383.949 10.9365C385.023 11.2783 386.146 11.4736 387.318 11.5225C387.367 11.5225 387.416 11.5225 387.465 11.5225C387.611 11.5225 387.758 11.5225 387.904 11.5225C388.148 11.5713 388.417 11.5957 388.71 11.5957C389.345 11.6445 389.955 11.6934 390.541 11.7422C390.59 11.7422 390.663 11.7422 390.761 11.7422C390.81 11.7422 390.858 11.7422 390.907 11.7422C391.054 11.7422 391.2 11.7422 391.347 11.7422C391.396 11.8887 391.444 12.0596 391.493 12.2549C391.64 12.6455 391.786 13.0361 391.933 13.4268C392.519 14.8428 392.885 16.2832 393.031 17.748C393.568 22.2891 394.984 26.5371 397.279 30.4922C397.279 30.541 397.304 30.6143 397.353 30.7119C397.401 30.7607 397.45 30.834 397.499 30.9316C397.548 30.9805 397.572 31.0293 397.572 31.0781C399.574 34.7891 401.552 38.4512 403.505 42.0645C404.335 43.5293 405.141 44.9453 405.922 46.3125C406.215 46.8496 406.508 47.3867 406.801 47.9238C407.289 48.8027 407.777 49.6816 408.266 50.5605C408.266 50.6094 408.29 50.6582 408.339 50.707C408.339 50.707 408.339 50.7314 408.339 50.7803C408.437 50.9268 408.51 51.0732 408.559 51.2197C408.656 51.3174 408.754 51.4395 408.852 51.5859C412.172 54.6621 414.638 58.3486 416.249 62.6455C416.347 62.8408 416.42 63.0361 416.469 63.2314C416.908 64.208 417.372 65.1846 417.86 66.1611C419.325 69.335 420.717 72.5332 422.035 75.7559C422.377 76.5859 422.719 77.4404 423.061 78.3193C423.793 80.0283 424.55 81.7617 425.331 83.5195C426.942 87.2793 428.578 91.0635 430.238 94.8721C431.752 98.1924 433.217 101.513 434.633 104.833C435.414 106.444 436.293 108.031 437.27 109.594C437.465 109.887 437.758 110.131 438.148 110.326C438.588 110.521 439.003 110.619 439.394 110.619C439.735 110.57 440.053 110.399 440.346 110.106C440.639 109.813 440.81 109.521 440.858 109.228C440.907 108.446 440.883 107.714 440.785 107.03C440.736 106.64 440.712 106.273 440.712 105.932C440.712 105.688 440.688 105.468 440.639 105.272C440.639 105.077 440.639 104.857 440.639 104.613C440.59 104.076 440.565 103.539 440.565 103.002C440.517 102.074 440.468 101.171 440.419 100.292C440.419 99.7061 440.419 99.1201 440.419 98.5342C440.272 95.1162 440.102 91.625 439.906 88.0605C439.76 85.8633 439.613 83.6172 439.467 81.3223C439.271 79.2715 439.174 77.1475 439.174 74.9502C439.174 74.1689 439.247 73.3389 439.394 72.46C439.394 72.4111 439.394 72.3623 439.394 72.3135C439.394 72.2158 439.418 72.0938 439.467 71.9473C439.564 71.459 439.613 70.9219 439.613 70.3359C439.711 68.9199 439.784 67.4551 439.833 65.9414C439.833 65.4531 439.857 64.9893 439.906 64.5498C439.906 64.0615 439.906 63.5244 439.906 62.9385C439.906 62.499 439.906 62.084 439.906 61.6934C439.906 61.5957 439.906 61.5225 439.906 61.4736C439.906 60.5947 439.931 59.6914 439.979 58.7637C440.028 58.2266 440.077 57.6895 440.126 57.1523C440.224 55.5898 440.346 53.9297 440.492 52.1719C441.078 47.3379 441.786 42.4795 442.616 37.5967C442.909 35.3506 443.104 33.1045 443.202 30.8584C443.202 30.6143 443.227 30.3457 443.275 30.0527C443.275 29.5156 443.3 28.9785 443.349 28.4414C443.642 24.5352 443.788 20.6289 443.788 16.7227C443.739 16.1367 443.715 15.4775 443.715 14.7451C443.715 14.0127 443.715 13.3291 443.715 12.6943C445.961 11.1318 448.451 10.6191 451.186 11.1562C451.723 11.2539 452.235 11.2295 452.724 11.083C453.212 10.9365 453.7 10.7168 454.188 10.4238C454.188 10.4238 454.213 10.3994 454.262 10.3506C455.482 9.71582 456.776 9.59375 458.144 9.98438C459.315 10.4238 460.243 11.1562 460.927 12.1816C460.878 12.2305 460.805 12.2793 460.707 12.3281C460.658 12.377 460.585 12.4258 460.487 12.4746C460.243 12.6211 459.999 12.7676 459.755 12.9141C459.071 13.3535 458.412 13.8174 457.777 14.3057C457.094 14.9404 456.63 15.6973 456.386 16.5762C455.702 18.4805 455.067 20.4336 454.481 22.4355C454.384 22.6797 454.286 22.8994 454.188 23.0947C454.14 23.4365 454.042 23.8027 453.896 24.1934C453.651 24.9258 453.432 25.6338 453.236 26.3174C452.602 28.2705 451.991 30.3945 451.405 32.6895C449.989 38.0605 448.891 43.6025 448.109 49.3154C447.719 52.3916 447.548 55.4434 447.597 58.4707C447.597 59.6426 447.621 60.7656 447.67 61.8398C447.67 61.9863 447.67 62.1084 447.67 62.2061C447.67 62.2549 447.67 62.2793 447.67 62.2793C447.719 62.377 447.743 62.4746 447.743 62.5723C447.743 62.6211 447.743 62.6699 447.743 62.7188C447.45 66.5762 447.304 70.3604 447.304 74.0713C447.304 74.8525 447.304 75.6582 447.304 76.4883C447.353 80.1016 447.255 83.5439 447.011 86.8154C446.669 92.04 446.571 97.1426 446.718 102.123C446.718 103.734 446.718 105.346 446.718 106.957C446.718 107.055 446.718 107.177 446.718 107.323C446.718 107.714 446.718 108.08 446.718 108.422C446.767 110.863 446.889 113.305 447.084 115.746C447.084 115.844 447.084 115.941 447.084 116.039C447.182 117.016 447.255 118.017 447.304 119.042C447.304 119.042 447.304 119.066 447.304 119.115C447.304 119.115 447.304 119.14 447.304 119.188C447.353 119.286 447.401 119.457 447.45 119.701C447.548 119.896 447.646 120.116 447.743 120.36C447.792 120.507 447.841 120.629 447.89 120.727C447.987 121.068 448.109 121.41 448.256 121.752C448.5 122.436 448.744 123.119 448.988 123.803C449.232 124.486 449.452 125.146 449.647 125.78C449.745 126.024 449.843 126.293 449.94 126.586C449.989 126.635 450.014 126.684 450.014 126.732C450.697 128.783 451.454 130.834 452.284 132.885C452.821 134.203 453.407 135.497 454.042 136.767C454.188 137.06 454.335 137.353 454.481 137.646C454.628 137.938 454.774 138.256 454.921 138.598C455.409 139.477 455.849 140.429 456.239 141.454ZM487.221 62.7188C487.953 63.1094 488.686 63.5 489.418 63.8906C491.225 64.8184 493.031 65.8682 494.838 67.04C497.621 68.7979 500.258 70.751 502.748 72.8994C504.115 74.2178 505.36 75.6338 506.483 77.1475C506.972 77.7822 507.46 78.3926 507.948 78.9785C508.925 80.1016 509.877 81.249 510.805 82.4209C511.244 83.0557 511.708 83.6904 512.196 84.3252C513.026 85.5459 513.93 86.6934 514.906 87.7676C515.932 88.8906 516.249 90.0625 515.858 91.2832C515.565 92.3574 515.541 93.4072 515.785 94.4326C515.932 95.1162 515.98 95.7998 515.932 96.4834C515.834 97.5576 515.663 98.6074 515.419 99.6328C515.224 100.658 514.979 101.684 514.687 102.709C514.54 103.344 514.394 103.954 514.247 104.54C514.052 105.321 513.881 106.078 513.734 106.811C513.441 108.129 513.124 109.447 512.782 110.766C511.903 114.33 510.243 117.479 507.802 120.214C506.63 121.63 505.092 122.704 503.188 123.437C500.502 124.413 497.792 125.146 495.058 125.634C493.642 125.878 492.226 126.171 490.81 126.513C488.466 127.001 486.122 126.854 483.778 126.073C483.192 125.878 482.606 125.707 482.021 125.561C478.798 124.682 475.648 123.607 472.572 122.338C468.91 120.873 466.225 118.31 464.516 114.647C464.32 114.11 464.223 113.573 464.223 113.036C464.223 111.767 464.223 110.497 464.223 109.228C464.271 107.421 464.271 105.639 464.223 103.881C464.125 100.365 464.003 96.8496 463.856 93.334C463.856 92.6016 463.832 91.8691 463.783 91.1367C463.783 90.9414 463.734 90.7461 463.637 90.5508C463.588 90.4531 463.539 90.3311 463.49 90.1846C463.295 89.208 463.441 88.2559 463.93 87.3281C465.443 84.6914 467.104 82.1768 468.91 79.7842C469.252 79.3447 469.496 78.832 469.643 78.2461C469.74 77.8066 469.887 77.3916 470.082 77.001C470.326 76.6104 470.546 76.2197 470.741 75.8291C471.278 74.5107 472.011 73.4365 472.938 72.6064C474.013 71.7275 475.014 70.751 475.941 69.6768C476.674 68.8955 477.431 68.1631 478.212 67.4795C479.677 66.1611 481.239 65.0137 482.899 64.0371C483.681 63.6465 484.584 63.3535 485.609 63.1582C486.146 63.0605 486.684 62.9141 487.221 62.7188ZM510.878 95.5312C511.171 92.5527 510.585 89.8184 509.12 87.3281C508.388 86.0586 507.582 84.8135 506.703 83.5928C506.361 83.0557 505.995 82.5186 505.604 81.9814C504.384 80.126 503.065 78.3438 501.649 76.6348C500.282 74.9258 498.646 73.4609 496.742 72.2402C496.303 71.9961 495.888 71.7031 495.497 71.3613C494.521 70.5312 493.373 69.9453 492.055 69.6035C490.932 69.457 489.809 69.3105 488.686 69.1641C488.441 69.1641 488.197 69.1396 487.953 69.0908C486.635 68.8955 485.438 69.2129 484.364 70.043C484.218 70.1406 484.047 70.2627 483.852 70.4092C482.729 71.3369 481.508 72.0938 480.189 72.6797C478.578 73.4121 477.431 74.4619 476.747 75.8291C475.038 79.1982 473.524 82.6406 472.206 86.1562C471.425 88.4023 470.741 90.6729 470.155 92.9678C469.911 93.9932 469.643 95.0186 469.35 96.0439C468.324 99.0713 468.178 102.099 468.91 105.126C469.789 107.909 469.911 110.668 469.276 113.402C469.228 113.744 469.276 114.086 469.423 114.428C469.423 114.477 469.423 114.525 469.423 114.574C470.009 116.186 471.01 117.382 472.426 118.163C476.43 120.946 480.873 122.509 485.756 122.851C487.27 122.899 488.759 122.899 490.224 122.851C491.151 122.851 492.055 122.655 492.934 122.265C494.691 121.483 496.327 120.507 497.841 119.335C499.647 117.87 501.234 116.186 502.602 114.281C504.555 111.303 506.337 108.202 507.948 104.979C508.192 104.54 508.437 104.101 508.681 103.661C509.413 102.392 510.023 101.098 510.512 99.7793C511 98.4609 511.122 97.0449 510.878 95.5312ZM492.494 93.5537C492.299 93.8955 492.128 94.2373 491.981 94.5791C491.64 95.3115 491.322 96.0439 491.029 96.7764C490.59 97.7529 490.102 98.3633 489.564 98.6074C489.076 98.8516 488.344 98.7539 487.367 98.3145C486.098 97.7285 484.853 97.0693 483.632 96.3369C483.192 96.0928 482.948 95.7266 482.899 95.2383C482.899 94.75 482.997 94.2861 483.192 93.8467C483.437 93.4072 483.729 93.1143 484.071 92.9678C485.585 92.333 487.147 91.8936 488.759 91.6494C490.468 91.4053 491.713 92.04 492.494 93.5537ZM553.285 134.496C552.895 135.473 552.479 136.059 552.04 136.254C551.601 136.498 550.941 136.425 550.062 136.034C548.793 135.497 547.523 134.96 546.254 134.423C544.984 133.837 543.69 133.3 542.372 132.812C541.933 132.616 541.493 132.494 541.054 132.445C540.614 132.396 540.224 132.299 539.882 132.152C539.149 131.908 538.612 131.493 538.271 130.907C537.978 130.321 537.782 129.613 537.685 128.783C538.124 128.588 538.563 128.417 539.003 128.271C539.784 127.978 540.565 127.685 541.347 127.392C541.786 126.708 542.006 126 542.006 125.268C542.006 124.486 541.933 123.729 541.786 122.997C541.688 122.509 541.64 121.996 541.64 121.459C541.591 121.215 541.542 120.971 541.493 120.727C541.444 120.482 541.42 120.238 541.42 119.994C541.225 117.211 541.054 114.428 540.907 111.645C540.907 111.352 540.907 111.083 540.907 110.839C540.907 110.595 540.907 110.351 540.907 110.106C540.858 109.179 540.81 108.275 540.761 107.396C540.565 105.443 540.492 103.49 540.541 101.537C540.541 100.219 540.517 98.876 540.468 97.5088C540.224 95.165 540.321 92.8213 540.761 90.4775C540.907 89.3057 540.907 88.1338 540.761 86.9619C540.712 86.4248 540.663 85.8877 540.614 85.3506C540.517 81.0537 540.321 76.7568 540.028 72.46C539.882 70.6533 539.662 68.8711 539.369 67.1133C538.734 64.0859 538.539 61.0098 538.783 57.8848C538.832 57.1035 538.686 56.3467 538.344 55.6143C538.246 55.4189 538.051 55.248 537.758 55.1016C537.514 54.9551 537.27 54.8818 537.025 54.8818C535.951 54.8818 534.999 54.9307 534.169 55.0283C533.681 55.0771 533.095 55.1016 532.411 55.1016C531.972 55.1504 531.532 55.1992 531.093 55.248C530.409 55.3457 529.701 55.3945 528.969 55.3945C528.627 55.3945 528.334 55.3945 528.09 55.3945C527.895 55.3945 527.748 55.3945 527.65 55.3945C527.504 55.3945 527.357 55.3945 527.211 55.3945C527.113 55.3945 526.967 55.3945 526.771 55.3945C526.576 55.3457 526.234 55.2969 525.746 55.248C523.256 55.0527 521.181 55.8096 519.521 57.5186C519.472 57.5674 519.398 57.6162 519.301 57.665C518.959 57.958 518.69 58.2754 518.495 58.6172C517.812 59.8379 516.664 60.2041 515.053 59.7158C515.004 59.6182 514.931 59.4961 514.833 59.3496C514.54 59.0566 514.296 58.666 514.101 58.1777C513.661 57.0547 513.246 55.9316 512.855 54.8086C512.562 53.9785 512.245 53.1484 511.903 52.3184C511.757 51.8789 511.513 51.4639 511.171 51.0732C510.243 50.1455 510.243 49.1201 511.171 47.9971C511.317 48.0459 511.464 48.0703 511.61 48.0703C511.903 48.168 512.245 48.2656 512.636 48.3633C512.831 48.4121 513.051 48.4609 513.295 48.5098C513.637 48.6562 514.003 48.7539 514.394 48.8027C514.735 48.8516 515.102 48.8027 515.492 48.6562C515.59 48.6074 515.712 48.6074 515.858 48.6562C516.005 48.6562 516.151 48.6807 516.298 48.7295C516.396 48.7783 516.493 48.8027 516.591 48.8027C517.079 48.9492 517.543 49.0713 517.982 49.1689C518.568 49.3154 519.154 49.4619 519.74 49.6084C519.887 49.6572 520.033 49.6816 520.18 49.6816C520.814 49.877 521.474 50.0234 522.157 50.1211C522.304 50.1211 522.426 50.1211 522.523 50.1211C523.695 50.2676 524.867 50.292 526.039 50.1943C526.723 50.1455 527.235 50.0723 527.577 49.9746C527.919 49.877 528.212 49.7793 528.456 49.6816C528.7 49.584 528.993 49.4863 529.335 49.3887C529.677 49.291 530.165 49.1934 530.8 49.0957C531.288 48.998 531.776 48.9248 532.265 48.876C532.899 48.7295 533.534 48.6318 534.169 48.583C534.755 48.4854 535.243 48.4121 535.634 48.3633C536.024 48.2656 536.562 48.1924 537.245 48.1436C537.294 48.0459 537.343 47.9482 537.392 47.8506C537.538 47.7041 537.611 47.582 537.611 47.4844C537.611 46.8496 537.611 46.1904 537.611 45.5068C537.758 43.8955 537.709 42.3086 537.465 40.7461C537.025 38.7441 536.415 36.7666 535.634 34.8135C535.487 34.5205 535.365 34.2275 535.268 33.9346C534.438 32.0791 533.07 30.8096 531.166 30.126C529.701 29.4912 528.7 28.3438 528.163 26.6836C528.358 26.6348 528.529 26.5859 528.676 26.5371C529.066 26.3906 529.408 26.293 529.701 26.2441C529.994 26.1953 530.263 26.1465 530.507 26.0977C530.995 26.0977 531.435 26 531.825 25.8047C532.948 25.3652 534.096 25.1699 535.268 25.2188C535.658 25.2188 536.073 25.1943 536.513 25.1455C538.417 24.9502 540.321 24.584 542.226 24.0469C543.3 23.7539 544.154 23.7295 544.789 23.9736C545.424 24.1689 546.059 24.7061 546.693 25.585C546.547 25.8291 546.4 26.0488 546.254 26.2441C545.912 26.7324 545.619 27.2451 545.375 27.7822C545.326 27.7822 545.302 27.7822 545.302 27.7822C544.716 29.1494 544.276 30.541 543.983 31.957C543.837 33.0312 543.373 33.8613 542.592 34.4473C541.859 34.9355 541.615 35.6436 541.859 36.5713C542.006 37.5479 542.104 38.5488 542.152 39.5742C542.201 40.1113 542.25 40.6484 542.299 41.1855C542.494 43.041 542.714 44.8721 542.958 46.6787C543.007 47.0693 543.153 47.3379 543.397 47.4844C543.69 47.582 544.008 47.6309 544.35 47.6309C545.033 47.582 545.717 47.5332 546.4 47.4844C547.279 47.3867 548.183 47.3135 549.11 47.2646C550.233 47.2158 551.381 47.1914 552.553 47.1914C553.578 47.1426 554.604 47.0938 555.629 47.0449C555.873 47.0449 556.117 46.9961 556.361 46.8984C556.508 46.8496 556.654 46.8008 556.801 46.752C556.654 46.1172 556.508 45.458 556.361 44.7744C558.412 44.5303 560.194 45.2383 561.708 46.8984C562.636 48.0215 563.441 49.1934 564.125 50.4141C564.809 51.5859 565.614 52.709 566.542 53.7832C567.03 54.3691 567.421 55.0283 567.714 55.7607C568.056 56.4932 568.227 57.1279 568.227 57.665C567.641 57.665 567.055 57.665 566.469 57.665C565.053 57.665 563.661 57.5918 562.294 57.4453C561.562 57.2988 560.951 56.957 560.463 56.4199C559.975 55.8828 559.535 55.248 559.145 54.5156C558.754 54.4668 558.363 54.3936 557.973 54.2959C557.045 54.1006 556.117 54.0518 555.189 54.1494C553.969 54.2471 552.748 54.3203 551.527 54.3691C548.842 54.4668 546.205 54.833 543.617 55.4678C543.666 56.2002 543.715 56.9082 543.764 57.5918C543.812 59.1543 543.91 60.6436 544.057 62.0596C544.203 63.8662 544.374 65.6729 544.569 67.4795C544.667 68.4561 544.765 69.4326 544.862 70.4092C545.106 72.6064 545.326 74.8037 545.521 77.001C545.57 77.4893 545.619 77.9775 545.668 78.4658C545.717 79.2471 545.79 80.0039 545.888 80.7363C545.985 81.8594 546.107 82.9824 546.254 84.1055C546.303 84.6426 546.376 85.1553 546.474 85.6436C546.571 86.4736 546.669 87.2793 546.767 88.0605C547.011 89.916 547.206 91.7715 547.353 93.627C547.499 95.2871 547.621 96.9473 547.719 98.6074C547.768 99.584 547.841 100.561 547.938 101.537C547.987 102.172 548.036 102.807 548.085 103.441C548.134 103.979 548.183 104.54 548.231 105.126C548.28 105.81 548.329 106.493 548.378 107.177C548.427 107.812 548.476 108.446 548.524 109.081C548.524 109.569 548.549 110.058 548.598 110.546C548.695 111.132 548.769 111.742 548.817 112.377C548.866 113.5 549.013 114.623 549.257 115.746C549.647 117.357 549.818 118.993 549.77 120.653C549.721 120.946 549.745 121.264 549.843 121.605C549.892 121.752 549.916 121.923 549.916 122.118C549.965 122.509 550.038 122.899 550.136 123.29C550.331 124.169 550.355 125.023 550.209 125.854C549.965 127.318 550.209 128.661 550.941 129.882C551.479 130.956 552.016 132.03 552.553 133.104C552.797 133.544 553.041 134.008 553.285 134.496ZM575.844 51.8789C576.088 51.8301 576.283 51.7812 576.43 51.7324C576.674 51.5859 576.869 51.5371 577.016 51.5859C577.553 51.7324 578.041 51.7568 578.48 51.6592C578.969 51.5615 579.433 51.3906 579.872 51.1465C580.214 51 580.556 50.8779 580.897 50.7803C581.825 50.4873 582.118 49.9258 581.776 49.0957C582.606 48.5098 583.266 48.2168 583.754 48.2168C584.242 48.2168 584.73 48.5586 585.219 49.2422C586.098 50.2676 587.074 50.9512 588.148 51.293C589.271 51.6348 590.443 51.8545 591.664 51.9521C591.811 52.001 591.981 52.0254 592.177 52.0254C593.739 52.2207 595.302 52.4648 596.864 52.7578C597.694 52.8555 598.5 52.9775 599.281 53.124C599.574 53.1729 599.892 53.1973 600.233 53.1973C600.331 53.1973 600.453 53.2217 600.6 53.2705C601.43 53.3193 602.26 53.3926 603.09 53.4902C605.092 53.7344 607.118 53.9053 609.169 54.0029C610.097 54.0029 611.024 53.832 611.952 53.4902C612.147 53.4414 612.318 53.3926 612.465 53.3438C613.832 52.8555 615.248 52.7334 616.713 52.9775C617.25 53.0752 617.885 52.9531 618.617 52.6113C619.008 52.4648 619.423 52.3184 619.862 52.1719C620.155 52.3672 620.57 52.6113 621.107 52.9043C621.498 53.0996 621.889 53.3193 622.279 53.5635C622.182 54.1006 622.108 54.6133 622.06 55.1016C621.815 56.2734 621.669 57.4209 621.62 58.5439C621.62 59.2764 621.742 60.0088 621.986 60.7412C622.035 60.9854 622.084 61.2295 622.133 61.4736C622.23 61.7666 622.328 62.0596 622.426 62.3525C622.475 62.499 622.523 62.6211 622.572 62.7188C621.938 63.3535 621.303 63.6709 620.668 63.6709C620.033 63.6221 619.398 63.4512 618.764 63.1582C618.715 63.1094 618.642 63.085 618.544 63.085C617.03 62.499 615.517 61.8887 614.003 61.2539C612.978 60.8145 611.952 60.3994 610.927 60.0088C610.39 59.8135 609.877 59.5938 609.389 59.3496C607.68 58.6172 605.946 58.0068 604.188 57.5186C601.894 57.0303 599.55 56.7373 597.157 56.6396C594.081 56.3955 591.005 56.249 587.929 56.2002C587.44 56.249 586.952 56.3711 586.464 56.5664C586.269 56.6152 586.073 56.6641 585.878 56.7129C585.731 57.7383 585.609 58.7393 585.512 59.7158C585.17 61.8643 584.999 63.9639 584.999 66.0146C584.999 67.9678 585.121 69.9453 585.365 71.9473C585.512 73.2656 585.609 74.584 585.658 75.9023C585.756 77.5137 585.78 79.125 585.731 80.7363C585.731 81.4688 585.731 82.1768 585.731 82.8604C585.731 83.7393 585.731 84.6426 585.731 85.5703C585.731 86.0098 585.731 86.4736 585.731 86.9619C585.976 87.0596 586.244 87.1572 586.537 87.2549C587.074 87.499 587.66 87.6943 588.295 87.8408C590.395 88.1338 592.494 88.4268 594.594 88.7197C595.375 88.8174 596.132 88.9395 596.864 89.0859C597.06 89.0859 597.23 89.0859 597.377 89.0859C598.402 89.1348 599.428 89.1836 600.453 89.2324C602.797 89.2812 605.141 89.3789 607.484 89.5254C608.9 89.623 610.292 89.7939 611.659 90.0381C612.392 90.1357 613.124 90.2334 613.856 90.3311C614.101 90.3311 614.345 90.3311 614.589 90.3311C614.931 90.3311 615.248 90.3555 615.541 90.4043C615.688 90.4043 615.858 90.4287 616.054 90.4775C616.64 90.5264 617.177 90.6729 617.665 90.917C618.202 91.1123 618.642 91.5029 618.983 92.0889C619.228 92.4795 619.545 92.7969 619.936 93.041C620.131 93.1387 620.277 93.2607 620.375 93.4072C619.984 94.4326 619.569 95.5068 619.13 96.6299C618.837 96.9717 618.471 97.1182 618.031 97.0693C617.592 96.9717 617.152 96.7764 616.713 96.4834C616.176 96.1416 615.639 95.7754 615.102 95.3848C613.881 94.5547 612.636 93.7246 611.366 92.8945C611.171 92.7969 610.902 92.7236 610.561 92.6748C610.268 92.5771 610.072 92.5771 609.975 92.6748C609.535 93.0654 609.071 93.2852 608.583 93.334C608.144 93.3828 607.704 93.3584 607.265 93.2607C607.118 93.2607 606.972 93.2363 606.825 93.1875C605.995 93.1387 605.189 93.041 604.408 92.8945C603.529 92.6992 602.65 92.5527 601.771 92.4551C598.598 92.2109 595.399 92.0889 592.177 92.0889C590.712 92.0889 589.198 92.1865 587.636 92.3818C586.903 92.4307 586.171 92.4795 585.438 92.5283C585.341 92.7725 585.268 93.0166 585.219 93.2607C584.682 94.5791 584.486 96.0439 584.633 97.6553C584.73 98.5342 584.657 99.4619 584.413 100.438C584.364 100.829 584.315 101.22 584.267 101.61C584.218 101.708 584.193 101.83 584.193 101.977C584.047 103.051 583.876 104.125 583.681 105.199C583.534 105.785 583.437 106.396 583.388 107.03C583.29 108.446 582.875 109.813 582.143 111.132C581.41 112.548 580.897 114.086 580.604 115.746C580.556 116.137 580.482 116.527 580.385 116.918C580.141 117.895 579.945 118.871 579.799 119.848C579.652 120.775 579.457 121.679 579.213 122.558C579.066 123.388 579.335 123.9 580.019 124.096C580.653 124.34 581.288 124.486 581.923 124.535C581.972 124.535 582.021 124.535 582.069 124.535C583.876 124.486 585.658 124.73 587.416 125.268C587.953 125.414 588.515 125.463 589.101 125.414C589.491 125.365 589.857 125.365 590.199 125.414C590.98 125.512 591.737 125.609 592.47 125.707C593.397 125.854 594.325 125.976 595.253 126.073C596.767 126.22 598.28 126.244 599.794 126.146C601.112 126.049 602.064 126.562 602.65 127.685C603.139 128.466 603.822 128.808 604.701 128.71C605.141 128.71 605.604 128.734 606.093 128.783C606.923 128.832 607.729 128.808 608.51 128.71C609.73 128.466 610.927 128.075 612.099 127.538C612.636 127.343 613.075 126.269 613.417 124.315C614.491 124.218 615.272 124.34 615.761 124.682C616.249 124.975 616.688 125.634 617.079 126.659C617.616 127.831 618.227 128.979 618.91 130.102C619.252 130.59 619.423 131.029 619.423 131.42C619.423 131.859 619.179 132.274 618.69 132.665C618.202 133.007 617.812 133.422 617.519 133.91C617.03 134.594 616.42 135.009 615.688 135.155C614.955 135.351 614.296 135.375 613.71 135.229C609.804 134.496 605.873 134.032 601.918 133.837C601.332 133.788 600.722 133.739 600.087 133.69C598.036 133.544 595.985 133.349 593.935 133.104C592.079 132.86 590.248 132.665 588.441 132.519C587.074 132.421 585.731 132.396 584.413 132.445C583.583 132.445 582.753 132.421 581.923 132.372C581.19 132.372 580.434 132.299 579.652 132.152C578.578 131.908 577.748 132.372 577.162 133.544C576.918 134.032 576.649 134.545 576.356 135.082C576.259 135.277 576.161 135.473 576.063 135.668C575.966 135.668 575.893 135.692 575.844 135.741C575.355 135.79 574.867 135.79 574.379 135.741C573.939 135.741 573.524 135.546 573.134 135.155C573.134 135.106 573.109 135.058 573.061 135.009C572.719 134.667 572.475 134.374 572.328 134.13C572.182 133.935 572.133 133.715 572.182 133.471C572.23 133.227 572.353 132.86 572.548 132.372C572.548 132.323 572.548 132.274 572.548 132.226C572.89 131.298 573.109 130.346 573.207 129.369C573.207 129.271 573.207 129.198 573.207 129.149C573.354 127.978 573.5 126.781 573.646 125.561C573.695 125.023 573.769 124.462 573.866 123.876C574.501 123.534 574.94 123.046 575.185 122.411C575.429 121.776 575.6 121.093 575.697 120.36C575.697 120.263 575.722 120.189 575.771 120.141C575.917 119.066 576.112 118.017 576.356 116.991C576.552 116.015 576.747 115.014 576.942 113.988C576.942 113.939 576.942 113.891 576.942 113.842C577.138 112.914 577.284 111.986 577.382 111.059C577.577 109.252 577.724 107.445 577.821 105.639C577.87 104.271 577.919 102.88 577.968 101.464C578.017 98.9248 578.139 96.3857 578.334 93.8467C578.822 89.208 579.091 84.5693 579.14 79.9307C579.14 79.0518 579.237 78.1729 579.433 77.2939C579.53 76.8057 579.628 76.3418 579.726 75.9023C579.823 75.1699 579.921 74.4375 580.019 73.7051C580.312 71.8984 580.531 70.0674 580.678 68.2119C580.775 66.3564 580.8 64.5254 580.751 62.7188C580.751 61.5469 580.751 60.375 580.751 59.2031C580.751 58.4219 580.482 57.7383 579.945 57.1523C578.969 56.0293 578.017 54.833 577.089 53.5635C576.698 53.0264 576.283 52.4648 575.844 51.8789ZM581.85 128.856C580.434 127.294 579.14 127.05 577.968 128.124C579.433 129.491 580.727 129.735 581.85 128.856Z" fill="black"/>
</svg>